{
  "accessors": [
    {
      "bufferView": 2,
      "componentType": 5126,
      "count": 25690,
      "max": [
        6.584893703460693,
        9.555351257324219,
        7.77983283996582
      ],
      "min": [
        -2.0731444358825684,
        -0.10997533798217773,
        -7.779832363128662
      ],
      "type": "VEC3"
    },
    {
      "bufferView": 2,
      "byteOffset": 308280,
      "componentType": 5126,
      "count": 25690,
      "max": [
        0.9999709725379944,
        0.999978244304657,
        1.0
      ],
      "min": [
        -0.9996908903121948,
        -0.9999691843986511,
        -1.0
      ],
      "type": "VEC3"
    },
    {
      "bufferView": 1,
      "componentType": 5126,
      "count": 25690,
      "max": [
        0.9935312271118164,
        0.9889782071113586
      ],
      "min": [
        0.006976425647735596,
        0.00765460729598999
      ],
      "type": "VEC2"
    },
    {
      "bufferView": 1,
      "byteOffset": 205520,
      "componentType": 5126,
      "count": 25690,
      "max": [
        0.9935312271118164,
        0.9889782071113586
      ],
      "min": [
        0.006976425647735596,
        0.00765460729598999
      ],
      "type": "VEC2"
    },
    {
      "bufferView": 1,
      "byteOffset": 411040,
      "componentType": 5126,
      "count": 25690,
      "max": [
        0.9935312271118164,
        0.9889782071113586
      ],
      "min": [
        0.006976425647735596,
        0.00765460729598999
      ],
      "type": "VEC2"
    },
    {
      "bufferView": 1,
      "byteOffset": 616560,
      "componentType": 5126,
      "count": 25690,
      "max": [
        0.9935312271118164,
        0.9889782071113586
      ],
      "min": [
        0.006976425647735596,
        0.00765460729598999
      ],
      "type": "VEC2"
    },
    {
      "bufferView": 1,
      "byteOffset": 822080,
      "componentType": 5126,
      "count": 25690,
      "max": [
        0.9935312271118164,
        0.9889782071113586
      ],
      "min": [
        0.006976425647735596,
        0.00765460729598999
      ],
      "type": "VEC2"
    },
    {
      "bufferView": 1,
      "byteOffset": 1027600,
      "componentType": 5126,
      "count": 25690,
      "max": [
        0.9935312271118164,
        0.9889782071113586
      ],
      "min": [
        0.006976425647735596,
        0.00765460729598999
      ],
      "type": "VEC2"
    },
    {
      "bufferView": 1,
      "byteOffset": 1233120,
      "componentType": 5126,
      "count": 25690,
      "max": [
        0.9935312271118164,
        0.9889782071113586
      ],
      "min": [
        0.006976425647735596,
        0.00765460729598999
      ],
      "type": "VEC2"
    },
    {
      "bufferView": 1,
      "byteOffset": 1438640,
      "componentType": 5126,
      "count": 25690,
      "max": [
        0.9935312271118164,
        0.9889782071113586
      ],
      "min": [
        0.006976425647735596,
        0.00765460729598999
      ],
      "type": "VEC2"
    },
    {
      "bufferView": 1,
      "byteOffset": 1644160,
      "componentType": 5126,
      "count": 25690,
      "max": [
        0.9935312271118164,
        0.9889782071113586
      ],
      "min": [
        0.006976425647735596,
        0.00765460729598999
      ],
      "type": "VEC2"
    },
    {
      "bufferView": 0,
      "componentType": 5125,
      "count": 129357,
      "type": "SCALAR"
    },
    {
      "bufferView": 2,
      "byteOffset": 616560,
      "componentType": 5126,
      "count": 25690,
      "max": [
        6.584893703460693,
        9.588262557983398,
        7.77983283996582
      ],
      "min": [
        -2.0731444358825684,
        -0.07706356048583984,
        -7.779832363128662
      ],
      "type": "VEC3"
    },
    {
      "bufferView": 2,
      "byteOffset": 924840,
      "componentType": 5126,
      "count": 25690,
      "max": [
        0.9999709725379944,
        0.9999781250953674,
        1.0
      ],
      "min": [
        -0.99969083070755,
        -0.9999691843986511,
        -1.0
      ],
      "type": "VEC3"
    },
    {
      "bufferView": 1,
      "byteOffset": 1849680,
      "componentType": 5126,
      "count": 25690,
      "max": [
        0.9935312271118164,
        0.9889782071113586
      ],
      "min": [
        0.006976425647735596,
        0.00765460729598999
      ],
      "type": "VEC2"
    },
    {
      "bufferView": 1,
      "byteOffset": 2055200,
      "componentType": 5126,
      "count": 25690,
      "max": [
        0.9935312271118164,
        0.9889782071113586
      ],
      "min": [
        0.006976425647735596,
        0.00765460729598999
      ],
      "type": "VEC2"
    },
    {
      "bufferView": 1,
      "byteOffset": 2260720,
      "componentType": 5126,
      "count": 25690,
      "max": [
        0.9935312271118164,
        0.9889782071113586
      ],
      "min": [
        0.006976425647735596,
        0.00765460729598999
      ],
      "type": "VEC2"
    },
    {
      "bufferView": 1,
      "byteOffset": 2466240,
      "componentType": 5126,
      "count": 25690,
      "max": [
        0.9935312271118164,
        0.9889782071113586
      ],
      "min": [
        0.006976425647735596,
        0.00765460729598999
      ],
      "type": "VEC2"
    },
    {
      "bufferView": 1,
      "byteOffset": 2671760,
      "componentType": 5126,
      "count": 25690,
      "max": [
        0.9935312271118164,
        0.9889782071113586
      ],
      "min": [
        0.006976425647735596,
        0.00765460729598999
      ],
      "type": "VEC2"
    },
    {
      "bufferView": 1,
      "byteOffset": 2877280,
      "componentType": 5126,
      "count": 25690,
      "max": [
        0.9935312271118164,
        0.9889782071113586
      ],
      "min": [
        0.006976425647735596,
        0.00765460729598999
      ],
      "type": "VEC2"
    },
    {
      "bufferView": 1,
      "byteOffset": 3082800,
      "componentType": 5126,
      "count": 25690,
      "max": [
        0.9935312271118164,
        0.9889782071113586
      ],
      "min": [
        0.006976425647735596,
        0.00765460729598999
      ],
      "type": "VEC2"
    },
    {
      "bufferView": 1,
      "byteOffset": 3288320,
      "componentType": 5126,
      "count": 25690,
      "max": [
        0.9935312271118164,
        0.9889782071113586
      ],
      "min": [
        0.006976425647735596,
        0.00765460729598999
      ],
      "type": "VEC2"
    },
    {
      "bufferView": 1,
      "byteOffset": 3493840,
      "componentType": 5126,
      "count": 25690,
      "max": [
        0.9935312271118164,
        0.9889782071113586
      ],
      "min": [
        0.006976425647735596,
        0.00765460729598999
      ],
      "type": "VEC2"
    },
    {
      "bufferView": 0,
      "byteOffset": 517428,
      "componentType": 5125,
      "count": 129357,
      "type": "SCALAR"
    }
  ],
  "asset": {
    "extras": {
      "author": "MORok001 (https://sketchfab.com/MORok001)",
      "license": "CC-BY-4.0 (http://creativecommons.org/licenses/by/4.0/)",
      "source": "https://sketchfab.com/3d-models/gamepads-d558e635c8c148c588d5afa7ae914b3b",
      "title": "Gamepads"
    },
    "generator": "Sketchfab-12.68.0",
    "version": "2.0"
  },
  "bufferViews": [
    {
      "buffer": 0,
      "byteLength": 1034856,
      "name": "floatBufferViews",
      "target": 34963
    },
    {
      "buffer": 0,
      "byteLength": 3699360,
      "byteOffset": 1034856,
      "byteStride": 8,
      "name": "floatBufferViews",
      "target": 34962
    },
    {
      "buffer": 0,
      "byteLength": 1233120,
      "byteOffset": 4734216,
      "byteStride": 12,
      "name": "floatBufferViews",
      "target": 34962
    }
  ],
  "buffers": [
    {
      "byteLength": 5967336,
      "uri": "scene.bin"
    }
  ],
  "images": [
    {
      "uri": "textures/Material_51_baseColor.png"
    },
    {
      "uri": "textures/Material_59_baseColor.png"
    }
  ],
  "materials": [
    {
      "doubleSided": true,
      "name": "Material_51",
      "pbrMetallicRoughness": {
        "baseColorTexture": {
          "index": 0
        },
        "metallicFactor": 0.0,
        "roughnessFactor": 0.0
      }
    },
    {
      "doubleSided": true,
      "name": "Material_59",
      "pbrMetallicRoughness": {
        "baseColorTexture": {
          "index": 1
        },
        "metallicFactor": 0.0,
        "roughnessFactor": 0.0
      }
    }
  ],
  "meshes": [
    {
      "name": "node_id30_Material_51_0",
      "primitives": [
        {
          "attributes": {
            "NORMAL": 1,
            "POSITION": 0,
            "TEXCOORD_0": 2,
            "TEXCOORD_1": 3,
            "TEXCOORD_2": 4,
            "TEXCOORD_3": 5,
            "TEXCOORD_4": 6,
            "TEXCOORD_5": 7,
            "TEXCOORD_6": 8,
            "TEXCOORD_7": 9,
            "TEXCOORD_8": 10
          },
          "indices": 11,
          "material": 0,
          "mode": 4
        }
      ]
    },
    {
      "name": "node_id36_Material_59_0",
      "primitives": [
        {
          "attributes": {
            "NORMAL": 13,
            "POSITION": 12,
            "TEXCOORD_0": 14,
            "TEXCOORD_1": 15,
            "TEXCOORD_2": 16,
            "TEXCOORD_3": 17,
            "TEXCOORD_4": 18,
            "TEXCOORD_5": 19,
            "TEXCOORD_6": 20,
            "TEXCOORD_7": 21,
            "TEXCOORD_8": 22
          },
          "indices": 23,
          "material": 1,
          "mode": 4
        }
      ]
    }
  ],
  "nodes": [
    {
      "children": [
        1
      ],
      "matrix": [
        1.0,
        0.0,
        0.0,
        0.0,
        0.0,
        2.220446049250313e-16,
        -1.0,
        0.0,
        0.0,
        1.0,
        2.220446049250313e-16,
        0.0,
        0.0,
        0.0,
        0.0,
        1.0
      ],
      "name": "Sketchfab_model"
    },
    {
      "children": [
        2
      ],
      "matrix": [
        0.009999999776482582,
        0.0,
        0.0,
        0.0,
        0.0,
        0.0,
        0.009999999776482582,
        0.0,
        0.0,
        -0.009999999776482582,
        0.0,
        0.0,
        0.0,
        0.0,
        0.0,
        1.0
      ],
      "name": "28ee0dcc3ce141c49bed83c41db36e7a.fbx"
    },
    {
      "children": [
        3
      ],
      "name": "RootNode"
    },
    {
      "children": [
        4,
        6
      ],
      "name": "root"
    },
    {
      "children": [
        5
      ],
      "matrix": [
        0.052972860634326935,
        0.0,
        0.0,
        0.0,
        0.0,
        0.052972860634326935,
        0.0,
        0.0,
        0.0,
        0.0,
        0.052972860634326935,
        0.0,
        -0.2773485481739044,
        -0.07599751651287079,
        0.3385109007358551,
        1.0
      ],
      "name": "node_id30"
    },
    {
      "mesh": 0,
      "name": "node_id30_Material_51_0"
    },
    {
      "children": [
        7
      ],
      "matrix": [
        0.05297286063432693,
        7.893570797001813e-10,
        8.721245080278717e-12,
        0.0,
        -7.893570797001813e-10,
        0.05297286063432693,
        -2.028182367741639e-19,
        0.0,
        -8.72124508027872e-12,
        7.286156716101923e-20,
        0.052972860634326935,
        0.0,
        -0.28017792105674744,
        -0.07774096727371216,
        1.3379268646240234,
        1.0
      ],
      "name": "node_id36"
    },
    {
      "mesh": 1,
      "name": "node_id36_Material_59_0"
    }
  ],
  "samplers": [
    {
      "magFilter": 9729,
      "minFilter": 9987,
      "wrapS": 10497,
      "wrapT": 10497
    }
  ],
  "scene": 0,
  "scenes": [
    {
      "name": "Sketchfab_Scene",
      "nodes": [
        0
      ]
    }
  ],
  "textures": [
    {
      "sampler": 0,
      "source": 0
    },
    {
      "sampler": 0,
      "source": 1
    }
  ]
}
