{
  "accessors": [
    {
      "bufferView": 2,
      "componentType": 5126,
      "count": 25,
      "max": [
        0.8247454762458801,
        0.12850330770015717,
        0.3629213869571686
      ],
      "min": [
        0.08862460404634476,
        0.12850311398506165,
        -0.3315633535385132
      ],
      "type": "VEC3"
    },
    {
      "bufferView": 2,
      "byteOffset": 300,
      "componentType": 5126,
      "count": 25,
      "max": [
        1.4612294485516486e-08,
        -1.0,
        2.8029634790982527e-07
      ],
      "min": [
        -2.1630986779541672e-08,
        -1.0,
        1.3884238114769687e-07
      ],
      "type": "VEC3"
    },
    {
      "bufferView": 1,
      "componentType": 5126,
      "count": 25,
      "max": [
        0.9613953232765198,
        0.8556059002876282
      ],
      "min": [
        0.8095505833625793,
        0.6888436675071716
      ],
      "type": "VEC2"
    },
    {
      "bufferView": 0,
      "componentType": 5125,
      "count": 63,
      "type": "SCALAR"
    },
    {
      "bufferView": 2,
      "byteOffset": 600,
      "componentType": 5126,
      "count": 1398,
      "max": [
        0.9060722589492798,
        0.07247413694858551,
        0.6291745901107788
      ],
      "min": [
        -0.00632041972130537,
        -0.006320474669337273,
        -0.6303988695144653
      ],
      "type": "VEC3"
    },
    {
      "bufferView": 2,
      "byteOffset": 17376,
      "componentType": 5126,
      "count": 1398,
      "max": [
        1.0,
        0.9998725056648254,
        1.0
      ],
      "min": [
        -0.9998725056648254,
        -0.9998725056648254,
        -1.0
      ],
      "type": "VEC3"
    },
    {
      "bufferView": 1,
      "byteOffset": 200,
      "componentType": 5126,
      "count": 1398,
      "max": [
        0.9748362302780151,
        0.9574822187423706
      ],
      "min": [
        0.17924393713474274,
        0.12996476888656616
      ],
      "type": "VEC2"
    },
    {
      "bufferView": 0,
      "byteOffset": 252,
      "componentType": 5125,
      "count": 5268,
      "type": "SCALAR"
    },
    {
      "bufferView": 2,
      "byteOffset": 34152,
      "componentType": 5126,
      "count": 636,
      "max": [
        0.4672951102256775,
        0.2447645664215088,
        0.6272574663162231
      ],
      "min": [
        -0.449665367603302,
        0.06279240548610687,
        -0.6335453987121582
      ],
      "type": "VEC3"
    },
    {
      "bufferView": 2,
      "byteOffset": 41784,
      "componentType": 5126,
      "count": 636,
      "max": [
        1.0,
        1.0,
        1.0
      ],
      "min": [
        -1.0,
        -1.0,
        -1.0
      ],
      "type": "VEC3"
    },
    {
      "bufferView": 1,
      "byteOffset": 11384,
      "componentType": 5126,
      "count": 636,
      "max": [
        0.6860459446907043,
        0.9253593683242798
      ],
      "min": [
        0.17834053933620453,
        0.11843658983707428
      ],
      "type": "VEC2"
    },
    {
      "bufferView": 0,
      "byteOffset": 21324,
      "componentType": 5125,
      "count": 3012,
      "type": "SCALAR"
    },
    {
      "bufferView": 2,
      "byteOffset": 49416,
      "componentType": 5126,
      "count": 2861,
      "max": [
        0.9023598432540894,
        0.1449679434299469,
        0.8289809226989746
      ],
      "min": [
        -0.0017186105251312256,
        0.001748096663504839,
        -0.8230510950088501
      ],
      "type": "VEC3"
    },
    {
      "bufferView": 2,
      "byteOffset": 83748,
      "componentType": 5126,
      "count": 2861,
      "max": [
        1.0,
        1.0,
        1.0
      ],
      "min": [
        -1.0,
        -1.0,
        -1.0
      ],
      "type": "VEC3"
    },
    {
      "bufferView": 1,
      "byteOffset": 16472,
      "componentType": 5126,
      "count": 2861,
      "max": [
        0.98005211353302,
        0.9773719310760498
      ],
      "min": [
        0.018521850928664207,
        0.2271636724472046
      ],
      "type": "VEC2"
    },
    {
      "bufferView": 0,
      "byteOffset": 33372,
      "componentType": 5125,
      "count": 7332,
      "type": "SCALAR"
    },
    {
      "bufferView": 2,
      "byteOffset": 118080,
      "componentType": 5126,
      "count": 18056,
      "max": [
        0.4521961212158203,
        0.24574261903762817,
        0.8260233402252197
      ],
      "min": [
        -0.4521980285644531,
        -0.2340489625930786,
        -0.8260235786437988
      ],
      "type": "VEC3"
    },
    {
      "bufferView": 2,
      "byteOffset": 334752,
      "componentType": 5126,
      "count": 18056,
      "max": [
        1.0,
        1.0,
        1.0
      ],
      "min": [
        -1.0,
        -1.0,
        -1.0
      ],
      "type": "VEC3"
    },
    {
      "bufferView": 1,
      "byteOffset": 39360,
      "componentType": 5126,
      "count": 18056,
      "max": [
        0.7260854840278625,
        0.9399148225784302
      ],
      "min": [
        0.018398858606815338,
        0.023298613727092743
      ],
      "type": "VEC2"
    },
    {
      "bufferView": 0,
      "byteOffset": 62700,
      "componentType": 5125,
      "count": 27894,
      "type": "SCALAR"
    },
    {
      "bufferView": 3,
      "componentType": 5126,
      "count": 39,
      "max": [
        3.3333332538604736
      ],
      "min": [
        0.0833333358168602
      ],
      "type": "SCALAR"
    },
    {
      "bufferView": 4,
      "componentType": 5126,
      "count": 39,
      "max": [
        1.0,
        1.0,
        1.0
      ],
      "min": [
        0.9999998807907104,
        0.9999998807907104,
        1.0
      ],
      "type": "VEC3"
    },
    {
      "bufferView": 3,
      "byteOffset": 156,
      "componentType": 5126,
      "count": 79,
      "max": [
        3.3333332538604736
      ],
      "min": [
        0.0833333358168602
      ],
      "type": "SCALAR"
    },
    {
      "bufferView": 5,
      "componentType": 5126,
      "count": 79,
      "max": [
        9.53829797367689e-08,
        9.170845771677705e-08,
        0.8935731649398804,
        0.9999994039535522
      ],
      "min": [
        -3.049942165489483e-08,
        3.997868347482836e-08,
        -0.00267469952814281,
        0.44891756772994995
      ],
      "type": "VEC4"
    },
    {
      "bufferView": 3,
      "byteOffset": 472,
      "componentType": 5126,
      "count": 39,
      "max": [
        3.3333332538604736
      ],
      "min": [
        0.0833333358168602
      ],
      "type": "SCALAR"
    },
    {
      "bufferView": 4,
      "byteOffset": 468,
      "componentType": 5126,
      "count": 39,
      "max": [
        1.0,
        1.0,
        1.0
      ],
      "min": [
        0.9999998807907104,
        0.9999998807907104,
        1.0
      ],
      "type": "VEC3"
    },
    {
      "bufferView": 3,
      "byteOffset": 628,
      "componentType": 5126,
      "count": 79,
      "max": [
        3.3333332538604736
      ],
      "min": [
        0.0833333358168602
      ],
      "type": "SCALAR"
    },
    {
      "bufferView": 5,
      "byteOffset": 1264,
      "componentType": 5126,
      "count": 79,
      "max": [
        9.53829797367689e-08,
        9.170845771677705e-08,
        0.8935731649398804,
        0.9999994039535522
      ],
      "min": [
        -3.049942165489483e-08,
        3.997868347482836e-08,
        -0.00267469952814281,
        0.44891756772994995
      ],
      "type": "VEC4"
    },
    {
      "bufferView": 3,
      "byteOffset": 944,
      "componentType": 5126,
      "count": 39,
      "max": [
        3.3333332538604736
      ],
      "min": [
        0.0833333358168602
      ],
      "type": "SCALAR"
    },
    {
      "bufferView": 4,
      "byteOffset": 936,
      "componentType": 5126,
      "count": 39,
      "max": [
        1.0,
        1.0,
        1.0
      ],
      "min": [
        0.9999998807907104,
        0.9999998807907104,
        1.0
      ],
      "type": "VEC3"
    },
    {
      "bufferView": 3,
      "byteOffset": 1100,
      "componentType": 5126,
      "count": 79,
      "max": [
        3.3333332538604736
      ],
      "min": [
        0.0833333358168602
      ],
      "type": "SCALAR"
    },
    {
      "bufferView": 5,
      "byteOffset": 2528,
      "componentType": 5126,
      "count": 79,
      "max": [
        9.53829797367689e-08,
        9.170845771677705e-08,
        0.8935731649398804,
        0.9999994039535522
      ],
      "min": [
        -3.049942165489483e-08,
        3.997868347482836e-08,
        -0.00267469952814281,
        0.44891756772994995
      ],
      "type": "VEC4"
    }
  ],
  "animations": [
    {
      "channels": [
        {
          "sampler": 0,
          "target": {
            "node": 4,
            "path": "scale"
          }
        },
        {
          "sampler": 1,
          "target": {
            "node": 4,
            "path": "rotation"
          }
        },
        {
          "sampler": 2,
          "target": {
            "node": 8,
            "path": "scale"
          }
        },
        {
          "sampler": 3,
          "target": {
            "node": 8,
            "path": "rotation"
          }
        },
        {
          "sampler": 4,
          "target": {
            "node": 16,
            "path": "scale"
          }
        },
        {
          "sampler": 5,
          "target": {
            "node": 16,
            "path": "rotation"
          }
        }
      ],
      "name": "Object_0",
      "samplers": [
        {
          "input": 20,
          "interpolation": "LINEAR",
          "output": 21
        },
        {
          "input": 22,
          "interpolation": "LINEAR",
          "output": 23
        },
        {
          "input": 24,
          "interpolation": "LINEAR",
          "output": 25
        },
        {
          "input": 26,
          "interpolation": "LINEAR",
          "output": 27
        },
        {
          "input": 28,
          "interpolation": "LINEAR",
          "output": 29
        },
        {
          "input": 30,
          "interpolation": "LINEAR",
          "output": 31
        }
      ]
    }
  ],
  "asset": {
    "extras": {
      "author": "carlcapu9 (https://sketchfab.com/carlcapu9)",
      "license": "CC-BY-4.0 (http://creativecommons.org/licenses/by/4.0/)",
      "source": "https://sketchfab.com/3d-models/old-storage-wooden-box-6a6683d8533a412c822dd59627349985",
      "title": "Old Storage Wooden Box"
    },
    "generator": "Sketchfab-14.38.0",
    "version": "2.0"
  },
  "bufferViews": [
    {
      "buffer": 0,
      "byteLength": 174276,
      "name": "floatBufferViews",
      "target": 34963
    },
    {
      "buffer": 0,
      "byteLength": 183808,
      "byteOffset": 174276,
      "byteStride": 8,
      "name": "floatBufferViews",
      "target": 34962
    },
    {
      "buffer": 0,
      "byteLength": 551424,
      "byteOffset": 358084,
      "byteStride": 12,
      "name": "floatBufferViews",
      "target": 34962
    },
    {
      "buffer": 0,
      "byteLength": 1416,
      "byteOffset": 909508,
      "name": "floatBufferViews"
    },
    {
      "buffer": 0,
      "byteLength": 1404,
      "byteOffset": 910924,
      "byteStride": 12,
      "name": "floatBufferViews"
    },
    {
      "buffer": 0,
      "byteLength": 3792,
      "byteOffset": 912328,
      "byteStride": 16,
      "name": "floatBufferViews"
    }
  ],
  "buffers": [
    {
      "byteLength": 916120,
      "uri": "scene.bin"
    }
  ],
  "images": [
    {
      "uri": "textures/Cube_064_baseColor.png"
    }
  ],
  "materials": [
    {
      "doubleSided": true,
      "name": "Cube_064",
      "pbrMetallicRoughness": {
        "baseColorTexture": {
          "index": 0
        },
        "metallicFactor": 0.0,
        "roughnessFactor": 0.4921919762041179
      }
    },
    {
      "doubleSided": true,
      "name": "Cube_063",
      "pbrMetallicRoughness": {
        "baseColorTexture": {
          "index": 0
        },
        "roughnessFactor": 0.3215247894
      }
    },
    {
      "doubleSided": true,
      "name": "Cube_062",
      "pbrMetallicRoughness": {
        "baseColorTexture": {
          "index": 0
        },
        "roughnessFactor": 0.5287635162
      }
    },
    {
      "doubleSided": true,
      "name": "Cube_036",
      "pbrMetallicRoughness": {
        "baseColorTexture": {
          "index": 0
        },
        "metallicFactor": 0.0,
        "roughnessFactor": 0.48000146286160106
      }
    },
    {
      "doubleSided": true,
      "name": "Cube_010",
      "pbrMetallicRoughness": {
        "baseColorTexture": {
          "index": 0
        },
        "metallicFactor": 0.0,
        "roughnessFactor": 0.48000146286160106
      }
    }
  ],
  "meshes": [
    {
      "name": "Cube_064_2_0",
      "primitives": [
        {
          "attributes": {
            "NORMAL": 1,
            "POSITION": 0,
            "TEXCOORD_0": 2
          },
          "indices": 3,
          "material": 0,
          "mode": 4
        }
      ]
    },
    {
      "name": "Cube_063_4_0",
      "primitives": [
        {
          "attributes": {
            "NORMAL": 5,
            "POSITION": 4,
            "TEXCOORD_0": 6
          },
          "indices": 7,
          "material": 1,
          "mode": 4
        }
      ]
    },
    {
      "name": "Cube_062_6_0",
      "primitives": [
        {
          "attributes": {
            "NORMAL": 9,
            "POSITION": 8,
            "TEXCOORD_0": 10
          },
          "indices": 11,
          "material": 2,
          "mode": 4
        }
      ]
    },
    {
      "name": "Cube_036_8_0",
      "primitives": [
        {
          "attributes": {
            "NORMAL": 13,
            "POSITION": 12,
            "TEXCOORD_0": 14
          },
          "indices": 15,
          "material": 3,
          "mode": 4
        }
      ]
    },
    {
      "name": "Cube_010_10_0",
      "primitives": [
        {
          "attributes": {
            "NORMAL": 17,
            "POSITION": 16,
            "TEXCOORD_0": 18
          },
          "indices": 19,
          "material": 4,
          "mode": 4
        }
      ]
    }
  ],
  "nodes": [
    {
      "children": [
        1
      ],
      "matrix": [
        1.0,
        0.0,
        0.0,
        0.0,
        0.0,
        2.220446049250313e-16,
        -1.0,
        0.0,
        0.0,
        1.0,
        2.220446049250313e-16,
        0.0,
        0.0,
        0.0,
        0.0,
        1.0
      ],
      "name": "Sketchfab_model"
    },
    {
      "children": [
        2
      ],
      "name": "405b5e7a55364e288ec5e9aeb9404fd0.abc.cleaner.materialmerger.gles"
    },
    {
      "children": [
        3
      ],
      "matrix": [
        1.0,
        0.0,
        0.0,
        0.0,
        0.0,
        2.220446049250313e-16,
        1.0,
        0.0,
        0.0,
        -1.0,
        2.220446049250313e-16,
        0.0,
        0.0,
        0.0,
        0.0,
        1.0
      ],
      "name": "Object_2"
    },
    {
      "children": [
        4,
        8,
        12,
        16,
        20
      ],
      "name": "Object_3"
    },
    {
      "children": [
        5
      ],
      "name": "Object_4",
      "rotation": [
        6.847526634601309e-08,
        6.820403086749138e-08,
        -0.0032030220609158278,
        0.9999948740005493
      ],
      "translation": [
        33.569000244140625,
        -0.520132303237915,
        1.376862645149231
      ]
    },
    {
      "children": [
        6
      ],
      "name": "TimeframeMainGroup"
    },
    {
      "children": [
        7
      ],
      "name": "Object_6"
    },
    {
      "mesh": 0,
      "name": "Cube_064_2_0"
    },
    {
      "children": [
        9
      ],
      "name": "Object_8",
      "rotation": [
        6.847526634601309e-08,
        6.820403086749138e-08,
        -0.0032030220609158278,
        0.9999948740005493
      ],
      "translation": [
        33.569000244140625,
        -0.520132303237915,
        1.376862645149231
      ]
    },
    {
      "children": [
        10
      ],
      "name": "TimeframeMainGroup"
    },
    {
      "children": [
        11
      ],
      "name": "Object_10"
    },
    {
      "mesh": 1,
      "name": "Cube_063_4_0"
    },
    {
      "children": [
        13
      ],
      "matrix": [
        1.0,
        0.0,
        0.0,
        0.0,
        0.0,
        1.0,
        0.0,
        0.0,
        0.0,
        0.0,
        1.0,
        0.0,
        34.01951217651367,
        -0.761086106300354,
        1.3797950744628906,
        1.0
      ],
      "name": "Object_12"
    },
    {
      "children": [
        14
      ],
      "name": "TimeframeMainGroup"
    },
    {
      "children": [
        15
      ],
      "name": "Object_14"
    },
    {
      "mesh": 2,
      "name": "Cube_062_6_0"
    },
    {
      "children": [
        17
      ],
      "name": "Object_16",
      "rotation": [
        6.847526634601309e-08,
        6.820403086749138e-08,
        -0.0032030220609158278,
        0.9999948740005493
      ],
      "translation": [
        33.569000244140625,
        -0.520132303237915,
        1.376862645149231
      ]
    },
    {
      "children": [
        18
      ],
      "name": "TimeframeMainGroup"
    },
    {
      "children": [
        19
      ],
      "name": "Object_18"
    },
    {
      "mesh": 3,
      "name": "Cube_036_8_0"
    },
    {
      "children": [
        21
      ],
      "matrix": [
        1.0,
        0.0,
        0.0,
        0.0,
        0.0,
        1.0,
        0.0,
        0.0,
        0.0,
        0.0,
        1.0,
        0.0,
        34.01951217651367,
        -0.761086106300354,
        1.3797950744628906,
        1.0
      ],
      "name": "Object_20"
    },
    {
      "children": [
        22
      ],
      "name": "TimeframeMainGroup"
    },
    {
      "children": [
        23
      ],
      "name": "Object_22"
    },
    {
      "mesh": 4,
      "name": "Cube_010_10_0"
    }
  ],
  "samplers": [
    {
      "magFilter": 9729,
      "minFilter": 9987,
      "wrapS": 10497,
      "wrapT": 10497
    }
  ],
  "scene": 0,
  "scenes": [
    {
      "name": "Sketchfab_Scene",
      "nodes": [
        0
      ]
    }
  ],
  "textures": [
    {
      "sampler": 0,
      "source": 0
    }
  ]
}
